<svg xmlns="http://www.w3.org/2000/svg" viewBox="0 0 32 32">
  <defs>
    <linearGradient id="purpleGradient" x1="0%" y1="0%" x2="100%" y2="100%">
      <stop offset="0%" stop-color="#9d4edd" />
      <stop offset="100%" stop-color="#7b2cbf" />
    </linearGradient>
  </defs>
  <rect width="32" height="32" rx="4" fill="#1a1a2e"/>
  <path fill="url(#purpleGradient)" d="M10.7,6.4c3.5,0,6.3,2.8,6.3,6.3v13h-3.8V12.7c0-1.4-1.1-2.5-2.5-2.5H8.2v15.5H4.4V6.4H10.7z
    M17,6.4h3.8c4.2,0,7.6,3.4,7.6,7.6c0,4.2-3.4,7.6-7.6,7.6H17V6.4z M20.8,17.8c2.1,0,3.8-1.7,3.8-3.8c0-2.1-1.7-3.8-3.8-3.8H17v7.6H20.8z"/>
</svg> 