<svg xmlns="http://www.w3.org/2000/svg" viewBox="0 0 1440 320" preserveAspectRatio="none">
  <path fill="#0f0a19" d="M0,160L48,170.7C96,181,192,203,288,192C384,181,480,139,576,128C672,117,768,139,864,154.7C960,171,1056,181,1152,176C1248,171,1344,149,1392,138.7L1440,128L1440,0L1392,0C1344,0,1248,0,1152,0C1056,0,960,0,864,0C768,0,672,0,576,0C480,0,384,0,288,0C192,0,96,0,48,0L0,0Z"></path>
  <path fill="#1a0e2e" opacity="0.7" d="M0,96L48,85.3C96,75,192,53,288,64C384,75,480,117,576,128C672,139,768,117,864,101.3C960,85,1056,75,1152,80C1248,85,1344,107,1392,117.3L1440,128L1440,0L1392,0C1344,0,1248,0,1152,0C1056,0,960,0,864,0C768,0,672,0,576,0C480,0,384,0,288,0C192,0,96,0,48,0L0,0Z"></path>
</svg> 